<svg xmlns="http://www.w3.org/2000/svg" width="59.435" height="51.892" viewBox="0 0 59.435 51.892">
  <g id="Group_46" data-name="Group 46" transform="translate(-1056.661 -3966.644)">
    <path id="Path_210" data-name="Path 210" d="M602.955,247.943l-11.429,5.715V259.2l11.429,5Z" transform="translate(513.142 3750.838)"/>
    <path id="Path_211" data-name="Path 211" d="M587.12,264.85a4.243,4.243,0,0,1-1.257,3.017h5.2a2.477,2.477,0,0,0,2.474-2.476V250.2a2.474,2.474,0,0,0-2.474-2.472h-3.94Z" transform="translate(508.578 3750.668)"/>
    <path id="Path_212" data-name="Path 212" d="M589.545,254.241A12.047,12.047,0,1,0,577.5,242.194,12.048,12.048,0,0,0,589.545,254.241Zm0-18.522a6.475,6.475,0,1,1-6.474,6.475,6.476,6.476,0,0,1,6.474-6.475Z" transform="translate(501.839 3736.498)"/>
    <path id="Path_213" data-name="Path 213" d="M575.662,253.691a10.719,10.719,0,1,0-10.72-10.72,10.719,10.719,0,0,0,10.72,10.72Zm0-16.582a5.862,5.862,0,1,1-5.862,5.862,5.862,5.862,0,0,1,5.862-5.862Z" transform="translate(491.72 3738.194)"/>
    <path id="Path_214" data-name="Path 214" d="M586.166,234.34a4.476,4.476,0,1,0,4.477,4.476A4.476,4.476,0,0,0,586.166,234.34Z" transform="translate(505.218 3739.877)"/>
    <path id="Path_215" data-name="Path 215" d="M572.6,236.05a3.861,3.861,0,1,0,3.86,3.861A3.861,3.861,0,0,0,572.6,236.05Z" transform="translate(494.78 3741.255)"/>
    <path id="Path_216" data-name="Path 216" d="M570.288,244.81h27.56a3.015,3.015,0,0,1,3.016,3.016v19.381a3.017,3.017,0,0,1-3.017,3.017h-27.56a3.016,3.016,0,0,1-3.016-3.016V247.827a3.017,3.017,0,0,1,3.017-3.017Z" transform="translate(493.597 3748.313)"/>
  </g>
</svg>
