<svg id="Group_37" data-name="Group 37" xmlns="http://www.w3.org/2000/svg" width="39.537" height="70.878" viewBox="0 0 39.537 70.878">
  <path id="Path_267" data-name="Path 267" d="M491.383,117.507a1.869,1.869,0,0,0-1.381.583,1.892,1.892,0,0,0-.586,1.38v19.822a1.963,1.963,0,1,1-3.925,0V119.47a2,2,0,0,0-1.968-1.963h0a1.986,1.986,0,0,0-1.963,1.963v19.822a1.965,1.965,0,1,1-3.929,0V119.47a1.965,1.965,0,1,0-3.929,0v23.473c0,3.587,5.541,5.686,5.541,9.84V184.3a3.973,3.973,0,0,0,3.878,3.92c.141,0,.27-.027.4-.041.134.014.265.039.406.041a3.98,3.98,0,0,0,3.878-3.92V152.783c0-4.155,5.539-6.253,5.539-9.84V119.47a1.988,1.988,0,0,0-1.963-1.963Z" transform="translate(-473.702 -117.505)"/>
  <path id="Path_268" data-name="Path 268" d="M500.906,117.887a5.632,5.632,0,0,0-5.749,1.031c-2.351,1.364-4.278,5.755-4.278,8.458l-2.591,24.308a.994.994,0,0,0,.982.982h4.458V184.5a3.879,3.879,0,1,0,7.758,0V119.267A1.885,1.885,0,0,0,500.906,117.887Z" transform="translate(-461.949 -117.501)"/>
</svg>
