<svg id="Group_23" data-name="Group 23" xmlns="http://www.w3.org/2000/svg" width="56.853" height="48.585" viewBox="0 0 56.853 48.585">
  <path id="Path_142" data-name="Path 142" d="M64.072,129.432c-.469-.028-.938-.011-1.405-.011l-36.388-.007a3.149,3.149,0,0,1-1.494-.123c-.1-.3-.191-.566-.266-.836a5.385,5.385,0,0,0-5.275-3.851c-1.592.03-3.185.023-4.777,0-1.483-.021-2.774.268-3.037,2.532-.09,2.751,1.566,3.107,3.088,3.1q1.828-.005,3.65.005c.317,0,.63.055.988.09.088.321.166.582.229.85q2.376,10.11,4.747,20.224c.45,1.912.878,3.83,1.369,5.731a5.186,5.186,0,0,0,4.126,3.954,8.2,8.2,0,0,0,1.816.116q12.713.011,25.427,0c.33,0,.658.012.986-.009a2.8,2.8,0,0,0,0-5.6c-.421-.032-.845-.012-1.266-.012q-12.078,0-24.163,0a3.063,3.063,0,0,1-1.513-.145,9.976,9.976,0,0,1-.582-2.964c.561-.009,1.071-.037,1.58-.037h25.43c.374,0,.749.025,1.122.009a4.545,4.545,0,0,0,4.34-2.993c.108-.261.2-.522.3-.786q2.172-5.856,4.342-11.711c.226-.615.483-1.222.663-1.85a4.457,4.457,0,0,0-4.035-5.678Z" transform="translate(-11.427 -124.603)" fill-rule="evenodd"/>
  <path id="Path_143" data-name="Path 143" d="M26.148,145.594a5.289,5.289,0,1,0,3.784,1.589,5.331,5.331,0,0,0-3.784-1.589Z" transform="translate(-3.891 -107.689)" fill-rule="evenodd"/>
  <path id="Path_144" data-name="Path 144" d="M36.346,145.6a5.213,5.213,0,0,0-5.312,5.352,5.315,5.315,0,1,0,10.63.007,5.217,5.217,0,0,0-5.319-5.359Z" transform="translate(4.371 -107.685)" fill-rule="evenodd"/>
</svg>
