<svg xmlns="http://www.w3.org/2000/svg" width="70.224" height="51.865" viewBox="0 0 70.224 51.865">
  <path id="Path_108" data-name="Path 108" d="M446.88,41.377a26.682,26.682,0,0,0-7.153-1.688,31.4,31.4,0,0,0-1.455-18.01,2.325,2.325,0,0,0-2.492-1.438A31.829,31.829,0,0,0,423,25.22a31.384,31.384,0,0,0-8.322-10.19,2.357,2.357,0,0,0-2.878,0,31.347,31.347,0,0,0-8.322,10.192,31.823,31.823,0,0,0-12.785-4.98A2.309,2.309,0,0,0,388.2,21.68a31.381,31.381,0,0,0-1.457,18.009,26.71,26.71,0,0,0-7.153,1.688,2.311,2.311,0,0,0-1.439,2.492,26.5,26.5,0,0,0,12.99,18.976,26.782,26.782,0,0,0,22.1,2.06A26.591,26.591,0,0,0,448.319,43.87a2.309,2.309,0,0,0-1.439-2.493ZM434.843,40.33c-.122.435-.254.869-.4,1.3s-.309.884-.481,1.321a27.019,27.019,0,0,1-12.75,14.135,31.571,31.571,0,0,0,4.338-9.87c.15-.609.282-1.225.393-1.842q.156-.846.266-1.706a32.017,32.017,0,0,0,.258-4.029,31.557,31.557,0,0,0-1.647-10.093,27.119,27.119,0,0,1,9.8-4.411,26.775,26.775,0,0,1,.224,15.2Zm1.34,8.558A32.135,32.135,0,0,0,438.4,44.2a22.036,22.036,0,0,1,5.008.847,22.017,22.017,0,0,1-10.373,13.826,22.321,22.321,0,0,1-11.066,2.954A31.418,31.418,0,0,0,436.183,48.888Zm-24.659,8.8A26.735,26.735,0,0,1,406.53,49.7a26.092,26.092,0,0,1-.868-2.517c-.187-.64-.354-1.308-.5-1.986a27.322,27.322,0,0,1-.573-5.562,27.013,27.013,0,0,1,1.307-8.323q.211-.657.457-1.3t.513-1.249a26.705,26.705,0,0,1,6.366-8.92,26.74,26.74,0,0,1,6.366,8.918q.27.616.512,1.25c.166.429.317.861.458,1.3a26.993,26.993,0,0,1,1.307,8.323A27.375,27.375,0,0,1,421.3,45.2c-.141.673-.309,1.342-.5,1.988-.247.852-.54,1.7-.866,2.516a26.864,26.864,0,0,1-5.052,8.052c-.46.509-.959,1.018-1.548,1.572l-.107.1-.037-.035-.136-.128C412.547,58.777,412.047,58.267,411.524,57.69ZM400,39.637a32.17,32.17,0,0,0,.258,4.03q.111.86.265,1.705.172.931.395,1.846a31.517,31.517,0,0,0,4.34,9.869A27.044,27.044,0,0,1,392.5,42.948q-.259-.655-.48-1.32c-.145-.429-.277-.863-.4-1.3a26.768,26.768,0,0,1,.226-15.195,27.137,27.137,0,0,1,9.8,4.414A31.564,31.564,0,0,0,400,39.637ZM388.065,44.2a32.21,32.21,0,0,0,2.219,4.692A31.426,31.426,0,0,0,404.5,61.823a22.027,22.027,0,0,1-21.44-16.781,22.072,22.072,0,0,1,5.008-.846Z" transform="translate(-378.121 -14.54)"/>
</svg>
