<svg xmlns="http://www.w3.org/2000/svg" width="51.335" height="54.89" viewBox="0 0 51.335 54.89">
  <g id="Group_40" data-name="Group 40" transform="translate(-737.446 -4364.056)">
    <path id="Path_255" data-name="Path 255" d="M426.823,462.537H430.7v3.874h-3.873Zm0,5.8H430.7v3.872h-3.873Zm0,5.8H430.7v3.874h-3.873Zm0,5.8H430.7v3.874h-3.873Zm0,5.8H430.7V489.6h-3.873Zm-5.955-23.2h3.873v3.875h-3.873Zm0,5.8h3.873v3.873h-3.873Zm0,5.8h3.873v3.874h-3.873Zm0,5.8h3.873v3.874h-3.873Zm0,5.8h3.873V489.6h-3.873Zm-5.957-23.2h3.872v3.875H414.91Zm0,5.8h3.872v3.872H414.91Zm0,5.8h3.872v3.874H414.91Zm0,5.8h3.872v3.874H414.91Zm0,5.8h3.872V489.6H414.91Zm-5.957-23.2h3.873v3.874h-3.873Zm0,5.8h3.873v3.872h-3.873Zm0,5.8h3.873v3.874h-3.873Zm0,5.8h3.873v3.874h-3.873Zm0,5.8h3.873V489.6h-3.873ZM403,462.537h3.872v3.875H403Zm0,5.8h3.872v3.873H403Zm0,5.8h3.872v3.874H403Zm0,5.8h3.872v3.874H403Zm0,5.8h3.872V489.6H403Zm-5.957-23.2h3.872v3.875h-3.872Zm0,5.8h3.872v3.872h-3.872Zm0,5.8h3.872v3.874h-3.872Zm0,5.8h3.872v3.874h-3.872Zm0,5.8h3.872v3.873h-3.872Zm-5.957-23.2h3.873v3.875h-3.873Zm0,5.8h3.873v3.872h-3.873Zm0,5.8h3.873v3.874h-3.873Zm0,5.8h3.873v3.874h-3.873Zm0,5.8h3.873v3.872h-3.873Z" transform="translate(351.626 3923.758)"/>
    <path id="Path_256" data-name="Path 256" d="M388.169,489.206a8.192,8.192,0,0,0,8.19,8.191h34.953a8.192,8.192,0,0,0,8.191-8.19V459.795H388.169Zm2.123-27.29H437.38v27.29a6.075,6.075,0,0,1-6.068,6.07H396.36a6.075,6.075,0,0,1-6.068-6.07Z" transform="translate(349.277 3921.548)"/>
    <path id="Path_257" data-name="Path 257" d="M431.82,450.248v4.144a1.518,1.518,0,0,1-1.517,1.518h-1.414a1.517,1.517,0,0,1-1.515-1.518v-4.171H416.06v4.171a1.518,1.518,0,0,1-1.515,1.518h-1.418a1.518,1.518,0,0,1-1.515-1.518v-4.171H400.3v4.171a1.517,1.517,0,0,1-1.515,1.518h-1.414a1.519,1.519,0,0,1-1.518-1.518v-4.144a8.185,8.185,0,0,0-7.682,8.165v5.541H439.5v-5.541a8.184,8.184,0,0,0-7.684-8.165Z" transform="translate(349.277 3913.834)"/>
    <rect id="Rectangle_30" data-name="Rectangle 30" width="3.873" height="3.875" transform="translate(742.709 4386.295)"/>
    <rect id="Rectangle_31" data-name="Rectangle 31" width="3.873" height="3.875" transform="translate(748.667 4386.295)"/>
    <rect id="Rectangle_32" data-name="Rectangle 32" width="3.873" height="3.875" transform="translate(754.624 4386.295)"/>
    <rect id="Rectangle_33" data-name="Rectangle 33" width="3.873" height="3.875" transform="translate(760.579 4386.295)"/>
    <rect id="Rectangle_34" data-name="Rectangle 34" width="3.873" height="3.875" transform="translate(766.536 4386.295)"/>
    <rect id="Rectangle_35" data-name="Rectangle 35" width="3.873" height="3.875" transform="translate(772.493 4386.295)"/>
    <rect id="Rectangle_36" data-name="Rectangle 36" width="3.873" height="3.875" transform="translate(778.448 4386.295)"/>
    <rect id="Rectangle_37" data-name="Rectangle 37" width="3.873" height="3.873" transform="translate(742.709 4392.095)"/>
    <rect id="Rectangle_38" data-name="Rectangle 38" width="3.873" height="3.873" transform="translate(748.667 4392.095)"/>
    <rect id="Rectangle_39" data-name="Rectangle 39" width="3.873" height="3.873" transform="translate(754.624 4392.095)"/>
    <rect id="Rectangle_40" data-name="Rectangle 40" width="3.873" height="3.873" transform="translate(760.579 4392.095)"/>
    <rect id="Rectangle_41" data-name="Rectangle 41" width="3.873" height="3.873" transform="translate(766.536 4392.095)"/>
    <rect id="Rectangle_42" data-name="Rectangle 42" width="3.873" height="3.873" transform="translate(772.493 4392.095)"/>
    <rect id="Rectangle_43" data-name="Rectangle 43" width="3.873" height="3.873" transform="translate(778.448 4392.095)"/>
    <rect id="Rectangle_44" data-name="Rectangle 44" width="3.873" height="3.874" transform="translate(742.709 4397.894)"/>
    <rect id="Rectangle_45" data-name="Rectangle 45" width="3.873" height="3.874" transform="translate(748.667 4397.894)"/>
    <rect id="Rectangle_46" data-name="Rectangle 46" width="3.873" height="3.874" transform="translate(754.624 4397.894)"/>
    <rect id="Rectangle_47" data-name="Rectangle 47" width="3.873" height="3.874" transform="translate(760.579 4397.894)"/>
    <rect id="Rectangle_48" data-name="Rectangle 48" width="3.873" height="3.874" transform="translate(766.536 4397.894)"/>
    <rect id="Rectangle_49" data-name="Rectangle 49" width="3.873" height="3.874" transform="translate(772.493 4397.894)"/>
    <rect id="Rectangle_50" data-name="Rectangle 50" width="3.873" height="3.874" transform="translate(778.448 4397.894)"/>
    <rect id="Rectangle_51" data-name="Rectangle 51" width="3.873" height="3.874" transform="translate(742.709 4403.69)"/>
    <rect id="Rectangle_52" data-name="Rectangle 52" width="3.873" height="3.874" transform="translate(748.667 4403.69)"/>
    <rect id="Rectangle_53" data-name="Rectangle 53" width="3.873" height="3.874" transform="translate(754.624 4403.69)"/>
    <rect id="Rectangle_54" data-name="Rectangle 54" width="3.873" height="3.874" transform="translate(760.579 4403.69)"/>
    <rect id="Rectangle_55" data-name="Rectangle 55" width="3.873" height="3.874" transform="translate(766.536 4403.69)"/>
    <rect id="Rectangle_56" data-name="Rectangle 56" width="3.873" height="3.874" transform="translate(772.493 4403.69)"/>
    <rect id="Rectangle_57" data-name="Rectangle 57" width="3.873" height="3.874" transform="translate(778.448 4403.69)"/>
    <rect id="Rectangle_58" data-name="Rectangle 58" width="3.873" height="3.873" transform="translate(742.709 4409.49)"/>
    <rect id="Rectangle_59" data-name="Rectangle 59" width="3.873" height="3.873" transform="translate(748.667 4409.49)"/>
    <rect id="Rectangle_60" data-name="Rectangle 60" width="3.873" height="3.873" transform="translate(754.624 4409.49)"/>
    <rect id="Rectangle_61" data-name="Rectangle 61" width="3.873" height="3.873" transform="translate(760.579 4409.49)"/>
    <rect id="Rectangle_62" data-name="Rectangle 62" width="3.873" height="3.873" transform="translate(766.536 4409.49)"/>
    <rect id="Rectangle_63" data-name="Rectangle 63" width="3.873" height="3.873" transform="translate(772.493 4409.49)"/>
    <rect id="Rectangle_64" data-name="Rectangle 64" width="3.873" height="3.873" transform="translate(778.448 4409.49)"/>
  </g>
</svg>
