<svg id="Group_27" data-name="Group 27" xmlns="http://www.w3.org/2000/svg" width="53.67" height="54.215" viewBox="0 0 53.67 54.215">
  <path id="Path_158" data-name="Path 158" d="M27.45,250.185c3.562,1.917,7.124-4.111,7.26-8.495s-3.014-9.179-5.066-11.369a4.207,4.207,0,0,0-6.029.138,6.118,6.118,0,0,0-1.6,2.818,14.181,14.181,0,0,0-.594,4.3,18.217,18.217,0,0,0,.594,4.583,12.64,12.64,0,0,0,5.433,8.02Z" transform="translate(-8.713 -229.116)"/>
  <path id="Path_159" data-name="Path 159" d="M34.958,250.732c2.991.839,5.923-2.857,7.7-6.638a19.63,19.63,0,0,0,1.615-4.871,11.226,11.226,0,0,0-1.615-7.869c-1.28-1.63-3.324-2.268-6.331-.487,0,0-4.931,3.15-5.617,7.943S30.574,249.5,34.958,250.732Z" transform="translate(-1.425 -228.566)"/>
  <path id="Path_160" data-name="Path 160" d="M42.485,241a20.1,20.1,0,0,0-4.493,4.668,9.465,9.465,0,0,0-1.672,4.373c-.261,3.127.25,5.594,1.672,6.98a4.664,4.664,0,0,0,3.4,1.238c3.971,0,9.041-5.752,9.041-11.1S47.554,237.715,42.485,241Z" transform="translate(3.241 -220.483)"/>
  <path id="Path_161" data-name="Path 161" d="M27.688,253.592a9.561,9.561,0,0,0,.365-5.693,11.337,11.337,0,0,0-.365-1.608,16.23,16.23,0,0,0-5.253-7.433c-7.944-3.56-9.039,5.892-7.4,10s4.793,7.809,8.63,7.123a5.06,5.06,0,0,0,4.019-2.389Z" transform="translate(-14.383 -221.899)"/>
  <path id="Path_162" data-name="Path 162" d="M51.866,258.976a46.694,46.694,0,0,0-9.345-12.648c-2.465-2.19-6.847-3.014-8.9-.547a61.39,61.39,0,0,0-9.68,9.17,25.2,25.2,0,0,0-3.881,6.172c-2.7,6.571.43,9.724,3.881,9.978a6.291,6.291,0,0,0,1.734-.114c3.973-.824,10.138-4.795,16.714-2.192,3.749,1.485,7.407,1.365,9.48-.258,1.563-1.22,2.226-3.3,1.342-6.179A24.769,24.769,0,0,0,51.866,258.976Z" transform="translate(-10.634 -216.903)"/>
</svg>
