<svg xmlns="http://www.w3.org/2000/svg" width="53.402" height="54.105" viewBox="0 0 53.402 54.105">
  <g id="Group_47" data-name="Group 47" transform="translate(-58.312 -4160.976)">
    <path id="Path_232" data-name="Path 232" d="M19.364,372.961a1.106,1.106,0,0,1-1.185,1.005H16.285a1.1,1.1,0,0,1-1.182-1.005V354.512a1.1,1.1,0,0,1,1.182-1h1.894a1.106,1.106,0,0,1,1.185,1Z" transform="translate(48.661 3835.902)"/>
    <path id="Path_233" data-name="Path 233" d="M26.442,372.961a1.105,1.105,0,0,1-1.183,1.005H23.365a1.105,1.105,0,0,1-1.182-1.005V354.512a1.1,1.1,0,0,1,1.182-1h1.894a1.105,1.105,0,0,1,1.183,1Z" transform="translate(54.366 3835.902)"/>
    <path id="Path_234" data-name="Path 234" d="M33.5,372.961a1.1,1.1,0,0,1-1.183,1.005H30.427a1.107,1.107,0,0,1-1.183-1.005v-18.45a1.107,1.107,0,0,1,1.183-1h1.894a1.1,1.1,0,0,1,1.183,1Z" transform="translate(60.055 3835.902)"/>
    <path id="Path_235" data-name="Path 235" d="M40.753,372.961a1.107,1.107,0,0,1-1.185,1.005H37.674a1.1,1.1,0,0,1-1.182-1.005V354.512a1.1,1.1,0,0,1,1.182-1h1.894a1.107,1.107,0,0,1,1.185,1Z" transform="translate(65.896 3835.902)"/>
    <path id="Path_236" data-name="Path 236" d="M64.059,350.681a1.105,1.105,0,0,1,1.005,1.182v1a1.107,1.107,0,0,1-1.005,1.185H13.329a1.106,1.106,0,0,1-1-1.185v-1a1.1,1.1,0,0,1,1-1.182Z" transform="translate(46.42 3833.624)"/>
    <path id="Path_237" data-name="Path 237" d="M64.059,365.861a1.108,1.108,0,0,1,1.005,1.183v.995a1.106,1.106,0,0,1-1.005,1.185H13.329a1.1,1.1,0,0,1-1-1.185v-.995a1.107,1.107,0,0,1,1-1.183Z" transform="translate(46.42 3845.857)"/>
    <path id="Path_238" data-name="Path 238" d="M64.762,356.224,40.141,338.2a2.3,2.3,0,0,0-2.712,0L12.812,356.224a1.771,1.771,0,0,0,1.046,3.2H63.715a1.773,1.773,0,0,0,1.048-3.2Zm-25.757.088a2.677,2.677,0,1,1,2.677-2.679,2.677,2.677,0,0,1-2.677,2.679Z" transform="translate(46.228 3823.214)"/>
  </g>
</svg>
