<svg xmlns="http://www.w3.org/2000/svg" width="65.531" height="50.826" viewBox="0 0 65.531 50.826">
  <path id="Path_102" data-name="Path 102" d="M258.5,30.917c2.262,0,4.483-1.428,4.483-3.19s-2.22-3.192-4.483-3.192a3.347,3.347,0,0,0-3.7,3.192l-.3,1.693c-.707-2.568-3.1-10.757-5.268-12.653-2.582-2.256-12.357-2.687-19.017-2.687s-16.439.43-19.017,2.687c-2.165,1.9-4.56,10.084-5.269,12.653l-.3-1.693a3.346,3.346,0,0,0-3.7-3.192c-2.263,0-4.483,1.429-4.483,3.192s2.22,3.19,4.483,3.19a4.445,4.445,0,0,0,1.76-.344l.894,1.129c-1.66,2.281-4.562,6.584-4.562,8.808,0,7.2.155,12.405,1.178,15.694v6.333a2.376,2.376,0,0,0,2.37,2.369h6.229a2.375,2.375,0,0,0,2.368-2.369V60.493h36.091v2.044a2.375,2.375,0,0,0,2.368,2.369h6.23a2.375,2.375,0,0,0,2.369-2.369V56.2c1.023-3.289,1.178-8.492,1.178-15.694,0-2.224-2.9-6.527-4.562-8.808l.894-1.129a4.445,4.445,0,0,0,1.76.344ZM212.385,18.486c2.042-1.827,11.068-2.364,17.836-2.364s15.794.537,17.836,2.364,4.081,11.6,4.081,11.6H208.3S210.346,20.312,212.385,18.486Zm-1.6,38.434c-2.021.726-7.2-3.728-5.745-5.383.831-.94,5.978-.755,6.913.6A4.051,4.051,0,0,1,210.78,56.92Zm-1.834-12.541c-3.023,0-5.477-1.877-5.477-4.191S205.923,36,208.946,36s5.481,1.876,5.481,4.19-2.455,4.191-5.481,4.191Zm32.233,10.6c-2.391,2.119-6.445,1.934-10.958,1.934s-8.567.185-10.958-1.934c-1.7-1.509-1.289-2.846,0-2.846h21.916C242.468,52.135,242.88,53.473,241.179,54.982Zm0-8.455H219.262c-2.9,0-2.365-2.256,0-4.405s6.445-1.934,10.958-1.934,8.6-.214,10.958,1.934S244.081,46.527,241.179,46.527Zm8.482,10.393a4.051,4.051,0,0,1-1.167-4.784c.935-1.353,6.082-1.539,6.913-.6C256.865,53.192,251.678,57.646,249.661,56.92Zm7.311-16.732c0,2.314-2.455,4.191-5.477,4.191s-5.481-1.877-5.481-4.191S248.465,36,251.495,36s5.477,1.876,5.477,4.19Z" transform="translate(-197.455 -14.081)"/>
</svg>
