<svg xmlns="http://www.w3.org/2000/svg" width="57.546" height="48.069" viewBox="0 0 57.546 48.069">
  <g id="Group_48" data-name="Group 48" transform="translate(-883.719 -4166.199)">
    <path id="Path_218" data-name="Path 218" d="M483.316,342.975c-.03.1-.069.183-.1.279C483.247,343.158,483.286,343.07,483.316,342.975Z" transform="translate(425.864 3827.415)"/>
    <path id="Path_219" data-name="Path 219" d="M483.456,342.145c-.007.056-.021.113-.028.169C483.435,342.257,483.449,342.2,483.456,342.145Z" transform="translate(426.036 3826.746)"/>
    <path id="Path_220" data-name="Path 220" d="M483.19,343.364c-.042.1-.1.194-.143.291C483.094,343.558,483.147,343.465,483.19,343.364Z" transform="translate(425.729 3827.729)"/>
    <path id="Path_221" data-name="Path 221" d="M483.412,342.566c-.021.1-.055.2-.079.307C483.358,342.771,483.391,342.671,483.412,342.566Z" transform="translate(425.96 3827.086)"/>
    <path id="Path_222" data-name="Path 222" d="M474.933,341.272l0-.032Z" transform="translate(419.191 3826.017)"/>
    <path id="Path_223" data-name="Path 223" d="M483.037,343.734c-.064.116-.138.224-.2.335C482.9,343.958,482.973,343.851,483.037,343.734Z" transform="translate(425.556 3828.027)"/>
    <path id="Path_224" data-name="Path 224" d="M475,340.982c.023-.113.056-.219.085-.328C475.054,340.764,475.021,340.87,475,340.982Z" transform="translate(419.243 3825.545)"/>
    <path id="Path_225" data-name="Path 225" d="M483.285,343.129c-.051.141-.1.286-.159.425C483.186,343.415,483.234,343.27,483.285,343.129Z" transform="translate(425.793 3827.539)"/>
    <path id="Path_226" data-name="Path 226" d="M483.484,341.708c0,.266-.016.529-.041.788C483.468,342.237,483.482,341.974,483.484,341.708Z" transform="translate(426.049 3826.394)"/>
    <path id="Path_227" data-name="Path 227" d="M474.934,341.566c.028-.247.064-.492.115-.73C475,341.074,474.963,341.319,474.934,341.566Z" transform="translate(419.192 3825.691)"/>
    <path id="Path_228" data-name="Path 228" d="M474.91,342.048a7.78,7.78,0,0,1,.041-.79A7.815,7.815,0,0,0,474.91,342.048Z" transform="translate(419.173 3826.031)"/>
    <path id="Path_229" data-name="Path 229" d="M483.129,343.525c-.06.127-.116.256-.183.377C483.012,343.781,483.069,343.652,483.129,343.525Z" transform="translate(425.647 3827.858)"/>
    <path id="Path_230" data-name="Path 230" d="M483.469,342.238c-.025.2-.051.4-.092.592C483.418,342.637,483.444,342.439,483.469,342.238Z" transform="translate(425.995 3826.821)"/>
    <path id="Path_231" data-name="Path 231" d="M483.383,342.736c-.037.144-.069.289-.113.43C483.315,343.026,483.346,342.881,483.383,342.736Z" transform="translate(425.909 3827.223)"/>
    <path id="Path_247" data-name="Path 247" d="M521.975,340.709H473.913a4.747,4.747,0,0,0-4.742,4.744v38.482a4.747,4.747,0,0,0,4.742,4.744h48.062a4.747,4.747,0,0,0,4.742-4.744V345.453a4.747,4.747,0,0,0-4.742-4.744Zm-34.554,9.1H494.9v1.213h-6.036v3.444h5.627v1.213h-5.627v3.746h6.082v1.213h-7.523Zm-11.579,0h1.531l5.7,8.784h.03V349.81h1.367V360.64h-1.58l-5.656-8.69h-.03v8.69h-1.365Zm17.86,32.684H477.708a1.29,1.29,0,1,1,0-2.58H493.7a1.29,1.29,0,0,1,0,2.58Zm0-6.816H477.708a1.29,1.29,0,1,1,0-2.58H493.7a1.29,1.29,0,1,1,0,2.58Zm0-6.814H477.708a1.291,1.291,0,1,1,0-2.582H493.7a1.291,1.291,0,1,1,0,2.582Zm5.375-8.225L496.3,349.81h1.472l2.123,9.01h.032l2.426-9.01h1.561l2.4,9.01h.03l2.2-9.01h1.441l-2.9,10.829h-1.5l-2.471-9.1h-.032l-2.5,9.1Zm19.1,21.855H502.185a1.29,1.29,0,0,1,0-2.58H518.18a1.29,1.29,0,0,1,0,2.58Zm0-6.816H502.185a1.29,1.29,0,0,1,0-2.58H518.18a1.29,1.29,0,1,1,0,2.58Zm0-6.814H502.185a1.291,1.291,0,0,1,0-2.582H518.18a1.291,1.291,0,1,1,0,2.582Zm-2.365-7.966c-2.428,0-4.474-1.183-4.474-3.825h1.365c0,1.823,1.517,2.612,3.157,2.612,1.3,0,2.744-.411,2.744-1.973,0-1.487-1.728-1.742-3.458-2.123s-3.472-.88-3.472-2.867c0-2.2,1.956-3.171,3.927-3.171a3.489,3.489,0,0,1,3.989,3.43h-1.365a2.368,2.368,0,0,0-2.686-2.217c-1.211,0-2.427.441-2.427,1.852,0,1.335,1.728,1.531,3.474,1.928,1.73.393,3.46,1,3.46,3.125,0,2.3-2.261,3.231-4.234,3.231Z" transform="translate(414.548 3825.589)"/>
  </g>
</svg>
