<svg xmlns="http://www.w3.org/2000/svg" width="57.071" height="56.07" viewBox="0 0 57.071 56.07">
  <path id="Path_136" data-name="Path 136" d="M576.441,67.8c-9.117-5.969-12.357-18.828-12.357-28.053,0-.7.363-.776.474-.781h45.819c.189.005.511.09.511.593a43.741,43.741,0,0,1-.245,4.55l-.053.5.5-.04c.529-.041,1.054-.063,1.561-.063,4.153,0,7.117,1.355,8.126,3.716,1.841,4.3-3.268,10.629-11.383,14.1a27.836,27.836,0,0,1-6.664,1.943l-.143.022-.1.11a20.863,20.863,0,0,1-3.98,3.4ZM612.622,48.33a17.626,17.626,0,0,0-2.372.168l-.294.041-.06.288a38.6,38.6,0,0,1-3.425,9.777l-.51.982,1.035-.4q.445-.172.9-.367c7.287-3.112,9.913-7.849,9.378-9.1C616.926,48.9,615.013,48.33,612.622,48.33ZM587.506,33.163c-1.474-2.23-.633-3.868.4-5.881a10.437,10.437,0,0,0,1.5-4.817,7.283,7.283,0,0,0-3-5.194c-1.682-1.62-3.16-3.04-2.157-5.539a10.916,10.916,0,0,0,4.851,4.933c2.284,1.494,4.257,2.785,4.063,5.325a9.747,9.747,0,0,1-2.829,5.623,10.04,10.04,0,0,0-2.837,5.55Z" transform="translate(-564.084 -11.731)"/>
</svg>
