<svg xmlns="http://www.w3.org/2000/svg" width="48.732" height="55.222" viewBox="0 0 48.732 55.222">
  <path id="Path_242" data-name="Path 242" d="M249.641,339.918a1.153,1.153,0,0,0-.988-1.21,2.042,2.042,0,0,0-.787.088c-2.7.767-5.391,1.548-8.091,2.321q-10.882,3.127-21.765,6.246a2.7,2.7,0,0,0-1.7,1.39,4.455,4.455,0,0,0-.49,2.109q0,12.337,0,24.673v.436a2.445,2.445,0,0,0-.374-.2,9.461,9.461,0,0,0-6.856-.973,9.67,9.67,0,1,0,4.053,18.911,9.539,9.539,0,0,0,7.724-9.571c0-8.532-.074-17.058-.074-25.586v-.427c8.622-2.363,16.287-4.721,24.911-7.086V367.6a2.886,2.886,0,0,0-.293-.125A9.694,9.694,0,1,0,249.454,378a5.585,5.585,0,0,0,.215-1.2V340.789C249.669,340.5,249.662,340.209,249.641,339.918Z" transform="translate(-200.938 -338.701)" fill-rule="evenodd"/>
</svg>
