<svg xmlns="http://www.w3.org/2000/svg" width="65.644" height="48.157" viewBox="0 0 65.644 48.157">
  <g id="Group_41" data-name="Group 41" transform="translate(-560.451 -3581.328)">
    <path id="Path_103" data-name="Path 103" d="M320.561,31.946a8.5,8.5,0,0,1-4.537,0L296,25.492V44.23s-.03.39-.03.563c0,4.93,10.318,8.951,22.264,8.951a40.363,40.363,0,0,0,15.936-2.872V27.561Z" transform="translate(274.979 3571.587)"/>
    <path id="Path_104" data-name="Path 104" d="M318.232,49.767c2.264-1.406,3.987-3.1,3.987-4.934,0-.173.032-.564.032-.564V25.562l-4.019,1.294Z" transform="translate(292.922 3571.644)"/>
    <path id="Path_105" data-name="Path 105" d="M331.236,30.728c-2.825-.941-5.812-1.92-8.648-2.861a1.4,1.4,0,0,1-.887-1.561c.072-.446.351-1.085.718-1.085h.9c2.846,1,5.671,2.04,8.5,2.986,2.76.921,5.513,1.995,8.288,2.916a1.043,1.043,0,0,1,.691.73h0l3.957-1.276,11.046-3.56L324.627,16.971a6.859,6.859,0,0,0-3.3,0L290.154,27.017l10.7,3.448,20.467,6.6a6.859,6.859,0,0,0,3.3,0l12.963-4.177,0,0C335.216,32.168,333.354,31.435,331.236,30.728Z" transform="translate(270.296 3564.559)"/>
    <path id="Path_106" data-name="Path 106" d="M316.423,25.695l.1.027-.1-.029Z" transform="translate(291.464 3571.749)"/>
    <path id="Path_107" data-name="Path 107" d="M319.783,43.024V38.966a17.372,17.372,0,0,1-2.009,1.048v2.739a2.208,2.208,0,1,0,2.009.271Z" transform="translate(291.371 3582.445)"/>
  </g>
</svg>
