<svg id="Group_24" data-name="Group 24" xmlns="http://www.w3.org/2000/svg" width="65.57" height="58.716" viewBox="0 0 65.57 58.716">
  <path id="Path_145" data-name="Path 145" d="M157.046,139.3a1.855,1.855,0,0,0-1.55-1.85c-.141-.035-.287-.04-.43-.065l-3.769-.663c-.467-1.219-.933-2.43-1.405-3.664.212-.289.4-.568.6-.832.545-.684,1.07-1.386,1.656-2.037a2.171,2.171,0,0,0-.042-3.44c-.31-.305-.578-.654-.871-.979-1.234-1.36-1.838-1.451-3.393-.492-1.033.635-2.054,1.284-3.146,1.968a19.136,19.136,0,0,0-5.421-2.5c-.1-.521-.2-.992-.28-1.466-.157-.908-.3-1.819-.462-2.728a1.869,1.869,0,0,0-1.769-1.661,14.239,14.239,0,0,0-2.762,0,1.845,1.845,0,0,0-1.77,1.652,15.77,15.77,0,0,1-.279,1.576,13.15,13.15,0,0,1-.517,2.556l-4.6,1.922c-.279-.183-.607-.39-.921-.614-.8-.557-1.569-1.147-2.381-1.68a1.886,1.886,0,0,0-2.64.2c-.571.523-1.123,1.075-1.647,1.648a1.844,1.844,0,0,0-.19,2.628c.506.772,1.077,1.5,1.592,2.264.268.4.667.72.689,1.093-.668,1.6-1.282,3.075-1.908,4.578-.236.046-.467.1-.7.138-1.15.2-2.3.367-3.444.594a1.826,1.826,0,0,0-1.624,1.785,25.854,25.854,0,0,0,0,2.767,1.783,1.783,0,0,0,1.383,1.686c.321.1.668.109,1,.187a23.986,23.986,0,0,1,3.474.7c.49,1.3.952,2.518,1.427,3.772-.4.506-.794,1-1.187,1.49-.483.607-1,1.192-1.451,1.823a1.891,1.891,0,0,0,.023,2.423,22.147,22.147,0,0,0,1.746,1.957,1.792,1.792,0,0,0,2.383.332c.386-.2.749-.451,1.12-.681.864-.534,1.725-1.072,2.559-1.587.933.48,1.776.963,2.654,1.354s1.8.688,2.695,1.023c.079.4.152.73.212,1.061.183,1.051.335,2.109.559,3.155a1.729,1.729,0,0,0,1.811,1.554c.921.04,1.846.028,2.769-.009a1.677,1.677,0,0,0,1.6-1.266c.129-.413.168-.857.266-1.282a26.739,26.739,0,0,1,.6-3.187c1.573-.647,3.044-1.256,4.576-1.883.407.279.852.573,1.286.88.714.5,1.411,1.033,2.143,1.51a1.846,1.846,0,0,0,2.633-.173c.575-.522,1.123-1.074,1.65-1.647a1.929,1.929,0,0,0,.2-2.645c-.589-.889-1.241-1.739-1.851-2.617-.215-.31-.392-.651-.524-.873.647-1.554,1.243-2.982,1.917-4.594.589-.106,1.206-.224,1.827-.33.718-.122,1.441-.21,2.153-.354a1.9,1.9,0,0,0,1.737-2C157.08,140.946,157.083,140.121,157.046,139.3ZM135.4,148.74a8.058,8.058,0,1,1,5.8-2.343A8.071,8.071,0,0,1,135.4,148.74Z" transform="translate(-91.504 -118.819)" fill-rule="evenodd"/>
  <path id="Path_146" data-name="Path 146" d="M121,153.135c-.1-.568-.2-1.136-.295-1.665.8-.751,1.531-1.446,2.294-2.166.529.12,1.046.236,1.561.356.33.078.654.187.989.243a1.218,1.218,0,0,0,1.439-.714c.182-.4.381-.788.533-1.2a1.313,1.313,0,0,0-.6-1.859c-.631-.448-1.287-.861-1.977-1.321.041-.832.083-1.645.124-2.448.358-.213.642-.393.938-.552.384-.21.783-.39,1.164-.6.95-.533,1.1-.876.811-1.883a11.564,11.564,0,0,0-.365-1.1c-.307-.769-.6-.959-1.449-.906-.531.035-1.058.139-1.587.2-.332.039-.667.057-.981.081-.4-.5-.742-.97-1.129-1.4-.416-.467-.876-.9-1.368-1.4.115-.508.208-1.03.353-1.536.536-1.91.494-2.178-1.583-3-.981-.391-1.344-.538-1.972.347-.444.626-.866.63-1.236,1.559h-3.289a11.129,11.129,0,0,0-1.245-1.806c-.48-.735-.871-.723-1.735-.443a11.031,11.031,0,0,0-1.22.533,1.267,1.267,0,0,0-.8,1.563c.047.332.155.677.215,1.011.094.515.169,1.04.238,1.476-.8.751-1.5,1.418-2.263,2.137-.434-.1-.9-.19-1.372-.3-.377-.088-.748-.2-1.129-.282a1.214,1.214,0,0,0-1.55.734,10.17,10.17,0,0,0-.619,1.474,1.171,1.171,0,0,0,.485,1.407c.478.333.728.631,1.206.966a.89.89,0,0,1,.429.564v2.451c0,.182-.268.349-.518.488-.425.235-.741.439-1.164.674-1.037.57-1.107.887-.8,1.987.014.048.056.1.07.141.543,1.829.825,2,2.712,1.721a3.7,3.7,0,0,1,1.658-.152c.825.912,1.6,1.771,2.425,2.674-.051.3-.088.635-.164.963-.124.518-.289,1.028-.4,1.552a1.169,1.169,0,0,0,.652,1.457c.469.252.977.434,1.464.654a1.135,1.135,0,0,0,1.432-.358c.28-.332.489-1.03.744-1.381.309-.425.494-1.472.885-1.472h3.051a27.643,27.643,0,0,0,1.376,2.564c.436.672.855.97,1.612.737a10.007,10.007,0,0,0,1.358-.444,1.1,1.1,0,0,0,.772-1.358C121.155,153.761,121.063,153.47,121,153.135Zm-6.2-4.987a5.166,5.166,0,1,1,3.656-1.525,5.15,5.15,0,0,1-3.656,1.525Z" transform="translate(-101.376 -110.019)" fill-rule="evenodd"/>
  <path id="Path_147" data-name="Path 147" d="M132.923,148.507c-.127-.748-.392-1.009-1.143-1.079-.575-.051-1.153-.056-1.711-.083l-1.522-2.4c.228-.54.462-1.069.672-1.607a.955.955,0,0,0-.379-1.377,6.433,6.433,0,0,0-.728-.483.9.9,0,0,0-1.3.123c-.455.427-.883.887-1.342,1.347-.737-.136-1.446-.265-2.293-.418-.2-.5-.381-.943-.571-1.386-.407-.958-.6-1.053-1.677-.866-.143.026-.291.035-.43.07a1.014,1.014,0,0,0-.922,1.115c-.019.624,0,1.249,0,1.82-.7.46-1.3.857-1.922,1.263-.386-.155-.746-.3-1.1-.448-1.34-.568-1.741-.423-2.416.885a.994.994,0,0,0,.171,1.324c.43.45.89.873,1.353,1.324-.15.661-.289,1.264-.427,1.859-.481.166-.892.305-1.3.448-1.127.39-1.222.533-1.1,1.679.011.1.018.19.032.286.127.827.388,1.086,1.224,1.153.571.046,1.146.053,1.668.074.529.825.994,1.552,1.488,2.317-.146.353-.289.712-.441,1.063-.582,1.363-.515,1.582.732,2.324.041.023.079.055.122.079a.955.955,0,0,0,1.418-.208c.413-.4.785-.846,1.174-1.273l2.354.469c.168.406.314.762.46,1.118.557,1.379.739,1.471,2.174,1.115.76-.192.979-.444.993-1.2.014-.624,0-1.249,0-1.822.691-.455,1.294-.855,1.908-1.263.337.138.656.25.959.4,1.583.771,1.742.429,2.529-.848a.912.912,0,0,0-.159-1.308c-.43-.451-.889-.878-1.353-1.331.164-.647.319-1.24.46-1.8.614-.2,1.127-.342,1.626-.529.679-.25.825-.485.8-1.2A6.584,6.584,0,0,0,132.923,148.507Zm-10.077,5.521a3.819,3.819,0,1,1,3.916-3.718A3.818,3.818,0,0,1,122.847,154.029Z" transform="translate(-92.184 -101.593)" fill-rule="evenodd"/>
</svg>
