<svg xmlns="http://www.w3.org/2000/svg" width="61.186" height="61.186" viewBox="0 0 61.186 61.186">
  <path id="Path_253" data-name="Path 253" d="M231.538,448.043a30.593,30.593,0,1,0,30.589,30.592A30.594,30.594,0,0,0,231.538,448.043Zm23.054,14.718L252.054,472l-8.39,2.774-10.92-7.932v-8.6l8.225-5.973a28.142,28.142,0,0,1,13.623,10.494ZM222.1,452.267l8.055,5.853v8.842l-10.459,7.6L211.91,472l-2.786-10.14a28.168,28.168,0,0,1,12.979-9.59Zm-3.483,43.785h-9a27.869,27.869,0,0,1-6.091-17.146l7.033-4.633,8.063,2.658,4.112,12.655Zm4.633,9.341-2.539-7.817,3.992-6.267h13.572L243,498.842l-2,6.149a28.013,28.013,0,0,1-17.755.4Zm29.256-8.225h-7.5l-4.705-7.495,4.028-12.4,9.071-3,6.133,4.04c0,.107.009.211.009.319a27.881,27.881,0,0,1-7.035,18.532Z" transform="translate(-200.941 -448.043)"/>
</svg>
