<svg id="Group_36" data-name="Group 36" xmlns="http://www.w3.org/2000/svg" width="49.698" height="55.622" viewBox="0 0 49.698 55.622">
  <path id="Path_265" data-name="Path 265" d="M120.633,457.605a8,8,0,0,1,6.73-4.387,9.3,9.3,0,0,1,9.2,6.4h3.326c-1.968-6.638-6.017-10.911-12.524-10.911-3.73,0-6.731,2.5-8.927,6.059a16.284,16.284,0,0,0-2.176,4.851h3.425A11.711,11.711,0,0,1,120.633,457.605Z" transform="translate(-102.659 -448.712)"/>
  <path id="Path_266" data-name="Path 266" d="M155.459,456.983H111.7c-.395,0-2.968,39.35-2.968,39.35a1.559,1.559,0,0,0,.2.825c.139.148.335.51.538.51h48.213c.2,0,.4-.594.541-.746s.212-.13.2-.335C158.425,496.588,155.853,456.983,155.459,456.983Z" transform="translate(-108.728 -442.047)"/>
</svg>
