<svg xmlns="http://www.w3.org/2000/svg" width="49.392" height="64.153" viewBox="0 0 49.392 64.153">
  <g id="Group_42" data-name="Group 42" transform="translate(-400.143 -3761.653)">
    <path id="Path_148" data-name="Path 148" d="M212.318,130.54a6.956,6.956,0,1,0-6.959-6.957,6.956,6.956,0,0,0,6.959,6.957Z" transform="translate(201.969 3645.025)"/>
    <path id="Path_149" data-name="Path 149" d="M223.781,130.54a6.956,6.956,0,1,0-6.955-6.956,6.956,6.956,0,0,0,6.955,6.956Z" transform="translate(211.209 3645.025)"/>
    <path id="Path_150" data-name="Path 150" d="M248.762,149.921l1.585-17.94a5.372,5.372,0,0,0-4.3-5.744l-3.308-.665a33.124,33.124,0,0,0-13.027,0l-3.31.665a5.279,5.279,0,0,0-.531.134,4.946,4.946,0,0,0-.531-.134l-3.308-.665a33.116,33.116,0,0,0-13.025,0l-3.31.665a5.372,5.372,0,0,0-4.3,5.744l1.21,13.686a4.664,4.664,0,0,0,4.648,4.254l1.58,21.682a2.686,2.686,0,0,0,2.68,2.492h8a2.677,2.677,0,0,0,2.192-1.143,1.774,1.774,0,0,1-.127-.531l-1.063-14.554a3.135,3.135,0,0,1-3.12-2.86l-.811-9.188a3.611,3.611,0,0,1,2.887-3.858l2.22-.444a22.262,22.262,0,0,1,8.747,0l2.222.444a3.613,3.613,0,0,1,2.885,3.858l-.811,9.188a3.137,3.137,0,0,1-3.121,2.86l-1.062,14.554a1.774,1.774,0,0,1-.282.83,2.681,2.681,0,0,0,1.943.843h8a2.688,2.688,0,0,0,2.682-2.492l.719-9.851h7.144Zm-22.687-9.56a4.671,4.671,0,1,1,4.671-4.671A4.671,4.671,0,0,1,226.075,140.361Z" transform="translate(198.763 3651.711)"/>
  </g>
</svg>
