<svg id="Group_22" data-name="Group 22" xmlns="http://www.w3.org/2000/svg" width="55.733" height="57.961" viewBox="0 0 55.733 57.961">
  <g id="Group_20" data-name="Group 20" transform="translate(19.879)">
    <path id="Path_137" data-name="Path 137" d="M688.691,19.952h12.193a.551.551,0,0,0,0-1.1H688.691a.551.551,0,0,0,0,1.1Z" transform="translate(-679.035 -8.093)"/>
    <path id="Path_138" data-name="Path 138" d="M688.691,17.96h19.056a.551.551,0,1,0,0-1.1H688.691a.551.551,0,0,0,0,1.1Z" transform="translate(-679.035 -9.698)"/>
    <path id="Path_139" data-name="Path 139" d="M713.986,15.411a26.615,26.615,0,0,0-12.595-2.486,37.872,37.872,0,0,0-9.83,1.044,18.1,18.1,0,0,0-8.144,4.513,1.054,1.054,0,0,0,1.469,1.513c4.477-4.358,10.579-4.962,16.5-4.962,9.821,0,15.451,2.991,15.451,8.2,0,7.911-16.014,8.018-16.182,8.018h-.725l-.481-.007a12.879,12.879,0,0,1-2.71,7.784,15.392,15.392,0,0,0,4.624-5.682,39.518,39.518,0,0,0,8.184-1.155c7.766-2.047,9.4-6,9.4-8.957a8.66,8.66,0,0,0-4.966-7.822Z" transform="translate(-683.098 -12.893)"/>
  </g>
  <g id="Group_21" data-name="Group 21" transform="translate(0 11.468)">
    <path id="Path_140" data-name="Path 140" d="M703.125,34.491s-2.344-.227-5.477-.408c-.194,9.592-1.763,15.731-5.024,17.356V41.271a1.512,1.512,0,0,0,1.33-1.487V38.267a1.528,1.528,0,0,0-1.531-1.528h-3.344a1.53,1.53,0,0,0-1.529,1.528v1.517a1.511,1.511,0,0,0,1.33,1.487V51.439c-3.261-1.625-4.834-7.765-5.026-17.356-3.128.181-5.475.408-5.475.408a6.285,6.285,0,0,0-6.289,6.286v7.966c0,3.476,9.748,5.036,18.871,5.036s18.453-1.56,18.453-5.036V40.777a6.286,6.286,0,0,0-6.289-6.286Z" transform="translate(-672.09 -7.286)"/>
    <path id="Path_141" data-name="Path 141" d="M687.476,46.385c4.456,0,11.323-5.825,11.323-13.571,0-7.483-5.079-13.571-11.323-13.571s-11.322,6.088-11.322,13.571C676.154,40.56,683.021,46.385,687.476,46.385Zm-8.459-16.6c.294-.491.621-.983.933-1.41.894-1.231,1.63-2.47,3.469,0,1.723,2.317,8.221,3.62,12.835,3.769.016.223.03.446.03.672,0,6-5.41,11.056-8.807,11.056s-8.805-5.059-8.805-11.056a13.731,13.731,0,0,1,.346-3.031Z" transform="translate(-668.815 -19.243)"/>
  </g>
</svg>
