<svg id="Group_25" data-name="Group 25" xmlns="http://www.w3.org/2000/svg" width="79.247" height="52.991" viewBox="0 0 79.247 52.991">
  <path id="Path_152" data-name="Path 152" d="M394.364,149.393c1.164-4.532-1.393-11.965-1.393-11.965A22.081,22.081,0,0,0,401,142.538a34.49,34.49,0,0,1,10.092,6.855c-.462-10.919-16.145-14.87-16.145-14.87,1.742.466,9.294,1.162,12.66-.7a11.1,11.1,0,0,1,7.2-.929c-5.909-5.826-14.515-3.492-18.779-1.779,10.369-5.012,12.274-8.907,12.274-8.907-14.171-1.742-16.612,10.1-16.612,10.1a12.354,12.354,0,0,1,1.279-11.15c-8.713,2.322-4.994,11.732-4.994,11.732-10.106-.813-9.641,7.9-9.641,7.9,4.181-5.343,8.362-4.88,8.362-4.88-13.127,8.713-8.712,21.723-8.712,21.723a14.125,14.125,0,0,1,4.181-9.294,47.891,47.891,0,0,0,5.925-9.523,26.983,26.983,0,0,0-.471,7.858,22.9,22.9,0,0,0,1.065,6.2c2.712,8.315,8.583,10.45,8.583,10.45a17.589,17.589,0,0,1-2.906-13.939Z" transform="translate(-377.272 -121.165)"/>
  <path id="Path_153" data-name="Path 153" d="M425.73,135.377s3.49-1.187,8.073,2.594c0,0-1.247-7.541-9.738-4.938,0,0,1.4-8.75-6.488-9.091a10.82,10.82,0,0,1,3.2,9.3s-4.326-9.675-16.116-5.507c0,0,2.365,2.973,12.178,5.3-3.97-.659-11.769-1.032-15.727,5.068a9.718,9.718,0,0,1,6.338-.566c3.231.954,9.556-1.067,10.96-1.794,0,0-12.667,6.338-11,15.766a30.2,30.2,0,0,1,7.34-7.766,19.361,19.361,0,0,0,5.9-5.888s-.783,6.841,1.065,10.5a15.407,15.407,0,0,1,.15,12.473s4.617-2.934,5.366-10.56a20.021,20.021,0,0,0-.259-5.505,23.689,23.689,0,0,0-1.885-6.634,41.845,41.845,0,0,0,6.864,7.029,12.372,12.372,0,0,1,5.331,7.16A16.812,16.812,0,0,0,425.73,135.377Z" transform="translate(-358.061 -118.927)"/>
  <path id="Path_154" data-name="Path 154" d="M426.385,139.1a65.924,65.924,0,0,0-1.721,12.535c-15.06,2.892-22.9.617-26.371-.649a79.734,79.734,0,0,0-5.412-15,20.579,20.579,0,0,1-5.629-4.03s.591,1.942,1.076,4.225c2.414,3.707,6.523,14.834,9.089,29.281h4c-.742-3.612-1.647-8.59-2.617-12.337a27.973,27.973,0,0,0,16.517,4.391,13.584,13.584,0,0,0,9.255-3.915c-.169,3.6-.2,8.25-.032,11.861H428c-.57-12.641.908-23.373,2.28-27.022a36.828,36.828,0,0,1,.164-3.737A18.917,18.917,0,0,1,426.385,139.1Z" transform="translate(-369.231 -112.471)"/>
</svg>
