<svg id="Group_33" data-name="Group 33" xmlns="http://www.w3.org/2000/svg" width="49.707" height="53.744" viewBox="0 0 49.707 53.744">
  <path id="Path_248" data-name="Path 248" d="M611.385,342.036a46.961,46.961,0,0,1-5.123.769,207.5,207.5,0,0,1-36.541,0,46.974,46.974,0,0,1-5.123-.769l20.693,25.779v19.962c-7.027.208-11.457,1.206-12.415,2.026,1.076.922,6.518,2.069,15.117,2.069s14.039-1.146,15.115-2.069c-.958-.82-5.387-1.818-12.417-2.026V367.816Z" transform="translate(-563.138 -338.128)"/>
  <path id="Path_249" data-name="Path 249" d="M613.5,341.939c-1.769-.92-10.719-2.067-24.853-2.067s-23.086,1.146-24.854,2.067c1.769.922,10.719,2.067,24.854,2.067S611.727,342.861,613.5,341.939Z" transform="translate(-563.789 -339.872)"/>
</svg>
