<svg xmlns="http://www.w3.org/2000/svg" width="47.307" height="57.034" viewBox="0 0 47.307 57.034">
  <path id="Path_151" data-name="Path 151" d="M319.2,130.871c4.34-3.645,7.241-11.855,5.456-12.215-2.37-.477-7.518,1.615-10.008,1.985-3.529.425-7.371-3.827-9.528-1.455-1.755,1.926,1.257,8.936,5.968,11.99-14.057,6.909-33.816,41.595.654,44.112C359.436,178.771,335.554,137.605,319.2,130.871Zm5.2,29.859-.571.53a9.238,9.238,0,0,1-6.29,2.529,9.107,9.107,0,0,1-5.885-2.176,10.871,10.871,0,0,1-3.171-4.576h-1.649a.358.358,0,0,1-.358-.36v-2.759a.358.358,0,0,1,.358-.36h.97c-.005-.161-.009-.322-.009-.481s0-.319.009-.479h-.97a.36.36,0,0,1-.358-.361V149.48a.357.357,0,0,1,.358-.36h1.649a10.86,10.86,0,0,1,3.171-4.577,9.04,9.04,0,0,1,11.648-.1l.608.488a.364.364,0,0,1,.051.507l-1.732,2.146a.361.361,0,0,1-.506.054l-.607-.489a5.649,5.649,0,0,0-3.578-1.3,6.1,6.1,0,0,0-5.239,3.276h7.657a.359.359,0,0,1,.36.36v2.757a.361.361,0,0,1-.36.361h-8.669c-.011.16-.016.321-.016.479s.005.319.016.481h8.669a.36.36,0,0,1,.36.36v2.759a.36.36,0,0,1-.36.36h-7.657a6.1,6.1,0,0,0,5.239,3.275,5.779,5.779,0,0,0,3.922-1.6l.572-.529a.357.357,0,0,1,.257-.1.352.352,0,0,1,.25.116l1.88,2.017a.368.368,0,0,1-.019.51Z" transform="translate(-292.557 -118.462)"/>
</svg>
