<svg id="Group_28" data-name="Group 28" xmlns="http://www.w3.org/2000/svg" width="71.063" height="41.137" viewBox="0 0 71.063 41.137">
  <path id="Path_163" data-name="Path 163" d="M169.562,266.25v8.906h5.816V260.786h-65.2V236.909a2.89,2.89,0,1,0-5.781,0v38.246h5.781V266.25Z" transform="translate(-104.398 -234.019)"/>
  <path id="Path_164" data-name="Path 164" d="M114.581,248.693a5.229,5.229,0,1,0-3.711-1.531,5.231,5.231,0,0,0,3.711,1.531" transform="translate(-100.418 -230.625)"/>
  <path id="Path_165" data-name="Path 165" d="M172.147,252.572l-.019-7.211a4.406,4.406,0,0,0-4.171-4.139H122.778v6.193H111.092a2.58,2.58,0,1,0,0,5.16h61.055Z" transform="translate(-101.084 -228.213)"/>
</svg>
