<svg xmlns="http://www.w3.org/2000/svg" width="73.918" height="43.727" viewBox="0 0 73.918 43.727">
  <g id="Group_45" data-name="Group 45" transform="translate(-868.689 -3968.32)">
    <path id="Path_178" data-name="Path 178" d="M476.8,231.236c.086-.057.18-.106.268-.162C476.982,231.131,476.888,231.18,476.8,231.236Z" transform="translate(420.697 3737.245)"/>
    <path id="Path_179" data-name="Path 179" d="M476.167,231.769c.067-.067.141-.127.21-.19C476.308,231.642,476.234,231.7,476.167,231.769Z" transform="translate(420.185 3737.651)"/>
    <path id="Path_180" data-name="Path 180" d="M476.471,231.487c.078-.062.159-.116.236-.175C476.629,231.371,476.548,231.425,476.471,231.487Z" transform="translate(420.43 3737.437)"/>
    <path id="Path_181" data-name="Path 181" d="M483.316,235.975c-.03.1-.069.183-.1.279C483.247,236.158,483.286,236.07,483.316,235.975Z" transform="translate(425.864 3741.194)"/>
    <path id="Path_182" data-name="Path 182" d="M483.456,235.145c-.007.056-.021.113-.028.169C483.435,235.257,483.449,235.2,483.456,235.145Z" transform="translate(426.036 3740.525)"/>
    <path id="Path_183" data-name="Path 183" d="M483.19,236.364c-.042.1-.1.194-.143.291C483.094,236.558,483.147,236.465,483.19,236.364Z" transform="translate(425.729 3741.508)"/>
    <path id="Path_184" data-name="Path 184" d="M483.412,235.566c-.021.1-.055.2-.079.307C483.358,235.771,483.391,235.671,483.412,235.566Z" transform="translate(425.96 3740.865)"/>
    <path id="Path_185" data-name="Path 185" d="M474.933,234.272l0-.032Z" transform="translate(419.191 3739.797)"/>
    <path id="Path_186" data-name="Path 186" d="M483.037,236.734c-.064.116-.138.224-.2.335C482.9,236.958,482.973,236.851,483.037,236.734Z" transform="translate(425.556 3741.806)"/>
    <path id="Path_187" data-name="Path 187" d="M475.247,233.158c.042-.094.092-.183.136-.275C475.339,232.975,475.289,233.064,475.247,233.158Z" transform="translate(419.444 3738.703)"/>
    <path id="Path_188" data-name="Path 188" d="M475.429,232.773c.046-.085.1-.162.148-.245C475.527,232.611,475.475,232.689,475.429,232.773Z" transform="translate(419.591 3738.417)"/>
    <path id="Path_189" data-name="Path 189" d="M475.643,232.416c.055-.081.116-.155.175-.233C475.76,232.261,475.7,232.335,475.643,232.416Z" transform="translate(419.764 3738.139)"/>
    <path id="Path_190" data-name="Path 190" d="M476.081,231.869c-.062.07-.13.137-.19.208C475.951,232.007,476.019,231.94,476.081,231.869Z" transform="translate(419.963 3737.886)"/>
    <path id="Path_191" data-name="Path 191" d="M475,233.982c.023-.113.056-.219.085-.328C475.054,233.764,475.021,233.87,475,233.982Z" transform="translate(419.243 3739.324)"/>
    <path id="Path_192" data-name="Path 192" d="M475.1,233.565c.033-.1.076-.206.114-.309C475.179,233.358,475.137,233.461,475.1,233.565Z" transform="translate(419.328 3739.003)"/>
    <path id="Path_194" data-name="Path 194" d="M476.283,231.714c.113-.1.22-.21.339-.305C476.5,231.5,476.4,231.612,476.283,231.714Z" transform="translate(420.279 3737.515)"/>
    <path id="Path_195" data-name="Path 195" d="M476,232.019c.1-.113.2-.229.309-.335C476.2,231.789,476.1,231.906,476,232.019Z" transform="translate(420.048 3737.736)"/>
    <path id="Path_196" data-name="Path 196" d="M476.6,231.432c.118-.092.236-.183.362-.268C476.838,231.249,476.72,231.341,476.6,231.432Z" transform="translate(420.536 3737.318)"/>
    <path id="Path_197" data-name="Path 197" d="M483.285,236.129c-.051.141-.1.286-.159.425C483.186,236.415,483.234,236.27,483.285,236.129Z" transform="translate(425.793 3741.318)"/>
    <path id="Path_198" data-name="Path 198" d="M483.484,234.708c0,.266-.016.529-.041.788C483.468,235.237,483.482,234.974,483.484,234.708Z" transform="translate(426.049 3740.173)"/>
    <path id="Path_199" data-name="Path 199" d="M474.934,234.566c.028-.247.064-.492.115-.73C475,234.074,474.963,234.319,474.934,234.566Z" transform="translate(419.192 3739.471)"/>
    <path id="Path_200" data-name="Path 200" d="M474.91,235.048a7.781,7.781,0,0,1,.041-.79,7.817,7.817,0,0,0-.041.79Z" transform="translate(419.173 3739.811)"/>
    <path id="Path_201" data-name="Path 201" d="M475.511,232.7c.078-.131.153-.263.24-.39C475.664,232.439,475.588,232.572,475.511,232.7Z" transform="translate(419.657 3738.243)"/>
    <path id="Path_202" data-name="Path 202" d="M475.045,233.838c.033-.137.063-.277.106-.411C475.108,233.561,475.078,233.7,475.045,233.838Z" transform="translate(419.281 3739.141)"/>
    <path id="Path_203" data-name="Path 203" d="M475.74,232.344c.09-.12.175-.243.272-.36C475.915,232.1,475.83,232.224,475.74,232.344Z" transform="translate(419.842 3737.979)"/>
    <path id="Path_204" data-name="Path 204" d="M475.167,233.434c.048-.134.092-.268.145-.4C475.259,233.166,475.215,233.3,475.167,233.434Z" transform="translate(419.38 3738.825)"/>
    <path id="Path_205" data-name="Path 205" d="M475.322,233.059c.062-.134.122-.268.192-.395C475.444,232.791,475.384,232.925,475.322,233.059Z" transform="translate(419.505 3738.526)"/>
    <path id="Path_206" data-name="Path 206" d="M483.129,236.525c-.06.127-.116.256-.183.377C483.012,236.781,483.069,236.652,483.129,236.525Z" transform="translate(425.647 3741.638)"/>
    <path id="Path_207" data-name="Path 207" d="M483.469,235.238c-.025.2-.051.4-.092.592C483.418,235.637,483.444,235.439,483.469,235.238Z" transform="translate(425.995 3740.601)"/>
    <path id="Path_208" data-name="Path 208" d="M483.383,235.736c-.037.144-.069.289-.113.43C483.315,236.026,483.346,235.881,483.383,235.736Z" transform="translate(425.909 3741.002)"/>
    <g id="Group_35" data-name="Group 35" transform="translate(868.689 3969.542)">
      <path id="Path_258" data-name="Path 258" d="M501.921,473.9v-4.2a9.494,9.494,0,0,0-9.5-9.495h0a9.493,9.493,0,0,0-9.493,9.494v4.548a71,71,0,0,1,18.987-.351Z" transform="translate(-456.767 -444.301)"/>
      <path id="Path_259" data-name="Path 259" d="M491.458,466.047a7.323,7.323,0,1,0-7.324-7.323,7.323,7.323,0,0,0,7.324,7.323Z" transform="translate(-455.799 -451.401)"/>
      <path id="Path_260" data-name="Path 260" d="M483.148,468.819a7.325,7.325,0,1,0-7.322-7.323,7.325,7.325,0,0,0,7.322,7.323Z" transform="translate(-462.494 -449.171)"/>
      <path id="Path_261" data-name="Path 261" d="M499.768,468.819a7.325,7.325,0,1,0-7.324-7.324,7.325,7.325,0,0,0,7.324,7.324Z" transform="translate(-449.103 -449.171)"/>
      <path id="Path_262" data-name="Path 262" d="M487.979,467.476a11.089,11.089,0,0,1,.536-3.412,9.456,9.456,0,0,0-4.4-1.081h0a9.494,9.494,0,0,0-9.493,9.493v3.754a63.6,63.6,0,0,1,13.355-3.926Z" transform="translate(-463.463 -442.069)"/>
      <path id="Path_263" data-name="Path 263" d="M507.956,472.477a9.5,9.5,0,0,0-9.494-9.495h0a9.447,9.447,0,0,0-4.4,1.081,11.143,11.143,0,0,1,.534,3.412v4.411a65.054,65.054,0,0,1,13.357,3.321Z" transform="translate(-447.797 -442.069)"/>
      <path id="Path_264" data-name="Path 264" d="M505.4,474.611a120.386,120.386,0,0,1,36.957,5.548,64.237,64.237,0,0,0-73.918,0A120.391,120.391,0,0,1,505.4,474.611Z" transform="translate(-468.443 -437.654)"/>
    </g>
  </g>
</svg>
