<svg xmlns="http://www.w3.org/2000/svg" width="68.436" height="64.044" viewBox="0 0 68.436 64.044">
  <path id="Path_252" data-name="Path 252" d="M79.6,481.4a1.528,1.528,0,0,0-.788-1.148l-10.274-4.86a7.292,7.292,0,0,0-.208-2.476,4.175,4.175,0,0,0-4.049,0,.915.915,0,0,0-.123.406l-2.2-1.04a7.586,7.586,0,0,0-.2-2.559,4.159,4.159,0,0,0-4.051,0,1.121,1.121,0,0,0-.134.481l-5.317-2.513c.049-2.185.076-4.377.076-6.555,0-9.639-2.963-15.229-6.618-15.229S39.1,451.5,39.1,461.136c0,2.18.028,4.372.078,6.557l-5.317,2.513a1.078,1.078,0,0,0-.132-.481,4.164,4.164,0,0,0-4.052,0,7.591,7.591,0,0,0-.2,2.559l-2.2,1.041a.972.972,0,0,0-.12-.406,4.177,4.177,0,0,0-4.053,0,7.223,7.223,0,0,0-.2,2.476l-10.276,4.858a1.533,1.533,0,0,0-.786,1.15l-.325,4.426a.549.549,0,0,0,.723.608l27.443-6.872a179.591,179.591,0,0,0,2.485,21.883l-5.541,2.6a1.543,1.543,0,0,0-.788,1.15l-.321,3.216a.55.55,0,0,0,.721.61l7.5-1.613c.629,1.633,1.3,2.541,1.993,2.541s1.363-.908,1.989-2.541l7.5,1.612a.552.552,0,0,0,.725-.61l-.324-3.217a1.535,1.535,0,0,0-.788-1.15l-5.537-2.6a180.358,180.358,0,0,0,2.481-21.883L79.2,486.433a.548.548,0,0,0,.723-.608Z" transform="translate(-11.498 -445.906)"/>
</svg>
