<svg xmlns="http://www.w3.org/2000/svg" width="77.917" height="42.133" viewBox="0 0 77.917 42.133">
  <path id="Path_217" data-name="Path 217" d="M734.9,252.707c.143.526.256,1.058.351,1.594a7.293,7.293,0,0,1,3.652,5.64c0,6.856-14.688,12.228-33.439,12.228s-33.439-5.372-33.439-12.228a7.3,7.3,0,0,1,3.654-5.64c.1-.536.208-1.069.351-1.594-5.934,2.419-9.523,5.578-9.523,9.032,0,7.615,17.443,13.789,38.959,13.789s38.959-6.174,38.959-13.789C744.425,258.285,740.833,255.127,734.9,252.707Zm-57.385,4.756c0-10.636,10.524-19.418,24.17-20.806a3.842,3.842,0,0,0,7.56,0c13.648,1.388,24.17,10.17,24.17,20.806,0,11.6-55.9,11.6-55.9,0Zm27.949-18.929a2.569,2.569,0,1,0-2.568-2.569,2.569,2.569,0,0,0,2.568,2.569Z" transform="translate(-666.508 -233.396)"/>
</svg>
