<svg id="Group_39" data-name="Group 39" xmlns="http://www.w3.org/2000/svg" width="49.919" height="73.838" viewBox="0 0 49.919 73.838">
  <path id="Path_273" data-name="Path 273" d="M806.291,449.816a6.679,6.679,0,1,1,6.678,6.678,6.679,6.679,0,0,1-6.678-6.678Z" transform="translate(-779.652 -443.136)"/>
  <path id="Path_274" data-name="Path 274" d="M798.776,483.244a7.259,7.259,0,1,1,7.259,7.26,7.259,7.259,0,0,1-7.259-7.26Z" transform="translate(-785.707 -416.666)"/>
  <path id="Path_275" data-name="Path 275" d="M826.092,476.2h0a2.4,2.4,0,0,1-.575-3.312l5.982-8.726-3.25-2.538-10.56,14.011-11.371-8.122,6.5-9.137H795.15a2.845,2.845,0,0,1-2.843-2.845h0a2.844,2.844,0,0,1,2.843-2.843h33.1l12.589,10.357-11.549,12.812a2.408,2.408,0,0,1-3.2.342Z" transform="translate(-790.92 -435.434)"/>
  <path id="Path_276" data-name="Path 276" d="M804.136,462.207l5.117,4.5-11.5,14.926a3.47,3.47,0,0,1-4.991.531h0a3.471,3.471,0,0,1-.492-4.784Z" transform="translate(-791.539 -427.768)"/>
  <path id="Path_277" data-name="Path 277" d="M810.49,464.983l5.324,4.5-18.589,22.8a3.207,3.207,0,0,1-4.7.286h0a3.208,3.208,0,0,1-.3-4.285Z" transform="translate(-791.539 -425.531)"/>
</svg>
