<svg id="Group_26" data-name="Group 26" xmlns="http://www.w3.org/2000/svg" width="52.818" height="62.859" viewBox="0 0 52.818 62.859">
  <path id="Path_156" data-name="Path 156" d="M687.018,118.072v6.186l-5.028,3.315-5.028-3.315v-6.186a6.3,6.3,0,0,0-3.017,5.5V125.6a7.766,7.766,0,0,0,4.022,6.147v45.166a4.023,4.023,0,1,0,8.045,0V131.743a7.77,7.77,0,0,0,4.022-6.147v-2.018A6.3,6.3,0,0,0,687.018,118.072ZM682.5,178.48a2.168,2.168,0,1,1,2.167-2.168,2.168,2.168,0,0,1-2.167,2.168Z" transform="translate(-673.945 -118.072)"/>
  <path id="Path_157" data-name="Path 157" d="M715.208,128.809a15.782,15.782,0,0,0-11.822-6.945,8.859,8.859,0,0,0-6.382-.442,14.2,14.2,0,0,1-1.354-.909c-.7-.533-8.274-.55-8.274-.55l-.067,11s3.479,0,5.883.018a4.953,4.953,0,0,0,3.513-1.125l.083-.07c-.023.141-.425.286-.425.434v21.6a3.8,3.8,0,0,0-1.005,3.282v19.677a4.63,4.63,0,0,0,3.742,4.56,4.393,4.393,0,0,0,.767.069,5.533,5.533,0,0,0,.859-.069,4.579,4.579,0,0,0,3.682-4.56V155.1c0-3.349-1.005-2.444-1.005-3.282V130.133l.227-1.367a20.237,20.237,0,0,1,4.978-.016,18.123,18.123,0,0,1,5.608,2.48C714.715,131.655,717.254,132.346,715.208,128.809Z" transform="translate(-663.176 -116.549)"/>
</svg>
