<svg id="Group_34" data-name="Group 34" xmlns="http://www.w3.org/2000/svg" width="41.071" height="71.444" viewBox="0 0 41.071 71.444">
  <path id="Path_250" data-name="Path 250" d="M687.972,368.723h4.834a156.02,156.02,0,0,1-3.409-30.3h.513v-2.83h-.547c0-.3-.005-.6-.005-.9h-.887v-2.855h-.6v2.855h-.889c0,.3,0,.6-.005.9h-.545v2.83h.511a156.134,156.134,0,0,1-3.407,30.3Z" transform="translate(-667.636 -331.838)"/>
  <path id="Path_251" data-name="Path 251" d="M705.39,368.234V364.9h-1.03l-3.331-8.072v-3.363H689.535v3.3l-3.356,8.135h-1.017v3.31l-10.429,17.649h8.83a11.709,11.709,0,1,1,23.417,0H715.8Zm-11.328-11.406h2.587l2.2,7.883h-6.985Z" transform="translate(-674.732 -314.413)"/>
</svg>
