<svg xmlns="http://www.w3.org/2000/svg" width="66.871" height="51.01" viewBox="0 0 66.871 51.01">
  <g id="Group_44" data-name="Group 44" transform="translate(-717.285 -3965.604)">
    <path id="Path_171" data-name="Path 171" d="M391.9,259.169c4.31,0,10.958-5.639,10.958-13.136,0-7.243-4.917-13.136-10.958-13.136s-10.96,5.894-10.96,13.136C380.938,253.529,387.587,259.169,391.9,259.169Zm-8.19-16.072c.284-.473.6-.951.9-1.361.866-1.194,1.577-2.391,3.356,0,1.674,2.243,7.962,3.5,12.429,3.643.011.22.026.436.026.654,0,5.8-5.236,10.7-8.523,10.7s-8.523-4.9-8.523-10.7A13.177,13.177,0,0,1,383.709,243.1Z" transform="translate(343.45 3738.714)"/>
    <path id="Path_172" data-name="Path 172" d="M414.216,244.714s-2.192-.208-5.121-.379a61.217,61.217,0,0,1-2.587,18.34c7.2-.367,13.595-1.83,13.595-4.612V250.6a5.887,5.887,0,0,0-5.886-5.89Z" transform="translate(364.054 3747.931)"/>
    <path id="Path_173" data-name="Path 173" d="M416.736,252.037c6,1.407,8.849.63,8.849-2.01,0-2.755-2.063-4.229-4.13-12.214s-7.375-8.243-10.486-8.243-8.422.257-10.487,8.243-4.132,9.459-4.132,12.214c0,2.585,2.732,3.393,8.484,2.1a6.88,6.88,0,0,0,11.9-.086Zm-5.989,1.206c-3.06,0-6.744-4.55-6.744-9.944a15.294,15.294,0,0,1,.774-4.982c.557-.492,1.213-.492,2.314.984,1.412,1.9,6.368,3.033,10.378,3.33.007.219.018.441.018.668C417.488,248.694,413.8,253.243,410.748,253.243Z" transform="translate(355.869 3736.033)"/>
    <path id="Path_174" data-name="Path 174" d="M385.453,252.195a3.249,3.249,0,0,1-.913-1.058,26.863,26.863,0,0,0,.913,4.356Z" transform="translate(346.352 3753.412)"/>
    <path id="Path_175" data-name="Path 175" d="M388.97,252.2v3.291a26.716,26.716,0,0,0,.91-4.352,3.2,3.2,0,0,1-.91,1.062Z" transform="translate(349.922 3753.41)"/>
    <path id="Path_176" data-name="Path 176" d="M400.452,256.1v5.592a49.945,49.945,0,0,0,7.671.961,61.307,61.307,0,0,1-2.58-18.317c-2.927.171-5.119.379-5.119.379a5.882,5.882,0,0,0-5.536,3.9A7.832,7.832,0,0,1,400.452,256.1Z" transform="translate(354.691 3747.931)"/>
    <path id="Path_177" data-name="Path 177" d="M408.961,247.965a6.176,6.176,0,0,0-1.919-.312s-2.268-.219-5.3-.393c-.19,9.288-1.71,15.229-4.864,16.8v-9.846a1.458,1.458,0,0,0,1.284-1.437v-1.467a1.479,1.479,0,0,0-1.48-1.479h-3.237a1.479,1.479,0,0,0-1.48,1.48v1.467a1.459,1.459,0,0,0,1.287,1.437v9.846c-3.159-1.573-4.677-7.514-4.866-16.8-3.031.175-5.3.393-5.3.393A6.089,6.089,0,0,0,377,253.741v7.713c0,3.363,9.433,4.872,18.266,4.872s17.859-1.509,17.859-4.872v-7.712a6.093,6.093,0,0,0-4.169-5.777Z" transform="translate(340.281 3750.288)"/>
  </g>
</svg>
