<svg xmlns="http://www.w3.org/2000/svg" width="55.949" height="55.312" viewBox="0 0 55.949 55.312">
  <path id="Path_254" data-name="Path 254" d="M349.659,467.086a20.861,20.861,0,0,0-11-15.312,21.157,21.157,0,0,0-21.9.67,19.667,19.667,0,0,0-9.482,12.588,23.528,23.528,0,0,0-.651,7.744,17.747,17.747,0,0,0,2.889,8.682,2.684,2.684,0,0,1,.184.42c-.229.256-.437.517-.67.753-1.189,1.2-2.374,2.4-3.578,3.578-2.859,2.8-5.74,5.574-8.586,8.385a15.343,15.343,0,0,0-1.989,2.28,4.8,4.8,0,0,0,.635,6.1,4.852,4.852,0,0,0,6.114.555,10.921,10.921,0,0,0,1.539-1.3q4.222-4.164,8.422-8.348c1.129-1.12,2.255-2.24,3.4-3.34a7.85,7.85,0,0,1,1.957-1.51,2.238,2.238,0,0,1,.272.072c.13.063.257.127.384.2a21.937,21.937,0,0,0,26.1-3.709,20.208,20.208,0,0,0,5.948-18.5Zm-18.028,18.548a15.73,15.73,0,0,1-17.13-7.659,14.009,14.009,0,0,1-1.668-9.073c.081-.526.15-1.049.247-1.571a15.05,15.05,0,0,1,11.494-11.522c1.266-.266,2.569-.356,3.855-.529a15.672,15.672,0,0,1,15.085,12.473,15.1,15.1,0,0,1-11.882,17.882Z" transform="translate(-294.076 -449.044)" fill-rule="evenodd"/>
</svg>
