<svg xmlns="http://www.w3.org/2000/svg" width="42.785" height="68.095" viewBox="0 0 42.785 68.095">
  <g id="Group_43" data-name="Group 43" transform="translate(-572.944 -3960.211)">
    <path id="Path_168" data-name="Path 168" d="M339.591,244.543a20.7,20.7,0,0,0-4.867-10.447,21.093,21.093,0,0,0-13.08-7.283c-.871-.131-1.282-.116-2.587-.215-.367,0-.76-.014-1.127-.014-.427.025-.337.011-.5.018a21,21,0,0,0-13.88,6.042,20.751,20.751,0,0,0-6.437,13.956,31.276,31.276,0,0,0,.734,8.445,66.71,66.71,0,0,0,5.211,14.937,130.933,130.933,0,0,0,12.171,20.377c1.044,1.457,2.13,2.88,3.2,4.321.063-.049.081-.06.092-.071A131.857,131.857,0,0,0,334.324,269a55.107,55.107,0,0,0,5.451-19.022,22.844,22.844,0,0,0-.184-5.43Zm-21.222,19.733a16.141,16.141,0,1,1,11.514-4.637,16.135,16.135,0,0,1-11.514,4.637Z" transform="translate(275.871 3733.627)"/>
    <path id="Path_169" data-name="Path 169" d="M314.866,231.73a.312.312,0,0,0-.064-.049.19.19,0,0,0-.044-.039.272.272,0,0,0-.065-.046.331.331,0,0,0-.046-.028c-.023-.01-.048-.025-.067-.035a.4.4,0,0,0-.055-.028l-.057-.026a.344.344,0,0,1-.065-.026.305.305,0,0,1-.056-.016c-.025-.009-.048-.014-.069-.02s-.039-.01-.058-.014a.9.9,0,0,0-.129-.018.459.459,0,0,1-.069,0h-.134a.508.508,0,0,1-.072,0,.29.29,0,0,1-.056.005.236.236,0,0,1-.071.012l-.06.014a.476.476,0,0,0-.065.02c-.021.009-.042.01-.057.016s-.042.018-.063.026l-.062.027a.509.509,0,0,0-.055.028l-.065.035a.471.471,0,0,0-.048.028.3.3,0,0,0-.064.046.451.451,0,0,0-.046.039.348.348,0,0,0-.06.05l-.009.007-3.984,3.756v-2.469h-2.719V238l-3.682,3.313,1.836,2,9.468-8.722,9.463,8.722,1.838-2-10.382-9.572Z" transform="translate(280.367 3737.492)"/>
    <path id="Path_170" data-name="Path 170" d="M312.9,234.395c-2.017,1.852-8.916,8.212-8.916,8.212l-.011.005v10.1h4.592v-6.2h8.664v6.2h4.592v-10.1l-.011-.005S313.871,235.3,312.9,234.395Z" transform="translate(281.428 3739.921)"/>
  </g>
</svg>
