<svg id="Group_29" data-name="Group 29" xmlns="http://www.w3.org/2000/svg" width="60.149" height="58.668" viewBox="0 0 60.149 58.668">
  <path id="Path_166" data-name="Path 166" d="M260.369,281.482c.06-.132,0-.282,0-.441v-1.891c0-.508-.143-1.174-.649-1.174h-1.157V251.538c0-.5-1.508-.649-2.016-.649H227.868V235l-.1-.36h-8.255c-.508,0-.679-.148-.679.36v15.892h-5.417V235c0-.254.042-.48-.12-.645l.064.272c-.166-.162-.321.014-.573.014h-8.1c-.508,0-.3-.148-.3.36v42.979H201.52c-.508,0-.739.667-.739,1.174v1.891c0,.508.231.547.739.547H260.6c.134,0,.217.173.331.122Zm-43.336-16.633c0,.268-.113.487-.252.487h-8.525c-.139,0-.252-.219-.252-.487V258.6c0-.268.113-.487.252-.487h8.525c.139,0,.252.219.252.487Zm14.446,0a.511.511,0,0,1-.531.487h-7.968a.511.511,0,0,1-.531-.487V258.6a.511.511,0,0,1,.531-.487h7.968a.511.511,0,0,1,.531.487Zm5.761.487c-.379,0-.344-.977-.344-1.356v-5.943c0-.161-.108-.252-.016-.37l-.476.039c.02,0-.058.407-.037.407H246.1c.377,0,1.629-.455,1.629-.076v5.943c0,.379-1.252,1.356-1.629,1.356Z" transform="translate(-200.781 -223.051)"/>
  <path id="Path_167" data-name="Path 167" d="M205.652,234.6a.922.922,0,0,0,.584-.2,10.359,10.359,0,0,1,6.169-1.815,14.894,14.894,0,0,1,4.407.705,12.12,12.12,0,0,0,3.6.566,10.392,10.392,0,0,0,1.123-.1,10.7,10.7,0,0,0-1.573,1.77.917.917,0,0,0,.765,1.421.926.926,0,0,0,.582-.208,10.377,10.377,0,0,1,6.167-1.813,14.817,14.817,0,0,1,4.409.705,12.131,12.131,0,0,0,3.6.566,11.639,11.639,0,0,0,8.84-4.3.906.906,0,0,0-.07-1.171.925.925,0,0,0-1.178-.138,8.906,8.906,0,0,1-4.458.815,27.978,27.978,0,0,1-5.664-.66,14.384,14.384,0,0,0-2.938-.314,12.494,12.494,0,0,0-1.684.124,10.663,10.663,0,0,0,.922-.995.912.912,0,0,0-.07-1.174.928.928,0,0,0-1.178-.134,8.944,8.944,0,0,1-4.456.811,27.98,27.98,0,0,1-5.664-.658,14.509,14.509,0,0,0-2.938-.312,12.434,12.434,0,0,0-10.052,5.089.916.916,0,0,0,.763,1.422Z" transform="translate(-197.594 -228.094)"/>
</svg>
